# Blender v2.93.5 OBJ File: ''
# www.blender.org
mtllib light_cone.mtl
o Cone
v 0.000000 -1.000000 -1.000000
v 0.195090 -1.000000 -0.980785
v 0.382683 -1.000000 -0.923880
v 0.555570 -1.000000 -0.831470
v 0.707107 -1.000000 -0.707107
v 0.831470 -1.000000 -0.555570
v 0.923880 -1.000000 -0.382683
v 0.980785 -1.000000 -0.195090
v 1.000000 -1.000000 0.000000
v 0.980785 -1.000000 0.195090
v 0.923880 -1.000000 0.382683
v 0.831470 -1.000000 0.555570
v 0.707107 -1.000000 0.707107
v 0.555570 -1.000000 0.831470
v 0.382683 -1.000000 0.923880
v 0.195090 -1.000000 0.980785
v -0.000000 -1.000000 1.000000
v -0.195090 -1.000000 0.980785
v -0.382683 -1.000000 0.923880
v -0.555570 -1.000000 0.831470
v -0.707107 -1.000000 0.707107
v -0.831469 -1.000000 0.555570
v -0.923880 -1.000000 0.382684
v -0.980785 -1.000000 0.195090
v -1.000000 -1.000000 -0.000000
v -0.980785 -1.000000 -0.195090
v -0.923879 -1.000000 -0.382684
v -0.831470 -1.000000 -0.555570
v -0.707107 -1.000000 -0.707107
v -0.555570 -1.000000 -0.831470
v -0.382683 -1.000000 -0.923880
v -0.195090 -1.000000 -0.980785
v -0.014912 0.847124 -0.074970
v -0.029252 0.847124 -0.070620
v -0.042467 0.847124 -0.063556
v -0.054050 0.847124 -0.054050
v -0.063556 0.847124 -0.042467
v -0.070620 0.847124 -0.029252
v -0.074970 0.847124 -0.014912
v -0.076438 0.847124 -0.000000
v -0.074970 0.847124 0.014912
v -0.070620 0.847124 0.029252
v -0.063556 0.847124 0.042467
v -0.054050 0.847124 0.054050
v -0.042467 0.847124 0.063556
v -0.029252 0.847124 0.070620
v -0.014912 0.847124 0.074970
v -0.000000 0.847124 0.076438
v 0.014912 0.847124 0.074970
v 0.029252 0.847124 0.070620
v 0.042467 0.847124 0.063556
v 0.054050 0.847124 0.054050
v 0.063556 0.847124 0.042467
v 0.070620 0.847124 0.029252
v 0.074970 0.847124 0.014912
v 0.076438 0.847124 0.000000
v 0.074970 0.847124 -0.014912
v 0.070620 0.847124 -0.029252
v 0.063556 0.847124 -0.042467
v 0.054050 0.847124 -0.054050
v 0.042467 0.847124 -0.063556
v 0.029252 0.847124 -0.070620
v 0.014912 0.847124 -0.074970
v 0.000000 0.847124 -0.076438
vt 0.507456 0.537485
vt 0.691342 0.961940
vt 0.597545 0.990393
vt 0.514626 0.535310
vt 0.777785 0.915735
vt 0.521233 0.531778
vt 0.853553 0.853553
vt 0.527025 0.527025
vt 0.915735 0.777785
vt 0.531778 0.521233
vt 0.961940 0.691342
vt 0.535310 0.514626
vt 0.990393 0.597545
vt 0.537485 0.507456
vt 1.000000 0.500000
vt 0.538219 0.500000
vt 0.990393 0.402455
vt 0.537485 0.492544
vt 0.961940 0.308658
vt 0.535310 0.485374
vt 0.915735 0.222215
vt 0.531778 0.478767
vt 0.853553 0.146447
vt 0.521233 0.468222
vt 0.777785 0.084265
vt 0.691342 0.038060
vt 0.514626 0.464690
vt 0.597545 0.009607
vt 0.507456 0.462515
vt 0.500000 0.000000
vt 0.492544 0.462515
vt 0.402455 0.009607
vt 0.485374 0.464690
vt 0.308658 0.038060
vt 0.222215 0.084265
vt 0.478767 0.468222
vt 0.146447 0.146447
vt 0.472975 0.472975
vt 0.084265 0.222215
vt 0.468222 0.478767
vt 0.038060 0.308658
vt 0.464690 0.485374
vt 0.009607 0.402455
vt 0.462515 0.492544
vt 0.000000 0.500000
vt 0.461781 0.500000
vt 0.009607 0.597545
vt 0.462515 0.507456
vt 0.038060 0.691342
vt 0.464690 0.514626
vt 0.084265 0.777785
vt 0.468222 0.521233
vt 0.146447 0.853553
vt 0.472975 0.527025
vt 0.222215 0.915735
vt 0.478767 0.531778
vt 0.308658 0.961940
vt 0.485374 0.535310
vt 0.402455 0.990393
vt 0.500000 0.538219
vt 0.500000 1.000000
vt 0.492544 0.537485
vt 0.527025 0.472975
vt 0.500000 0.461781
vn 0.1745 0.4472 -0.8772
vn 0.3423 0.4472 -0.8263
vn 0.4969 0.4472 -0.7437
vn 0.6324 0.4472 -0.6324
vn 0.7437 0.4472 -0.4969
vn 0.8263 0.4472 -0.3423
vn 0.8772 0.4472 -0.1745
vn 0.8944 0.4472 0.0000
vn 0.8772 0.4472 0.1745
vn 0.8263 0.4472 0.3423
vn 0.7437 0.4472 0.4969
vn 0.6324 0.4472 0.6324
vn 0.4969 0.4472 0.7437
vn 0.3423 0.4472 0.8263
vn 0.1745 0.4472 0.8772
vn 0.0000 0.4472 0.8944
vn -0.1745 0.4472 0.8772
vn -0.3423 0.4472 0.8263
vn -0.4969 0.4472 0.7437
vn -0.6324 0.4472 0.6324
vn -0.7437 0.4472 0.4969
vn -0.8263 0.4472 0.3423
vn -0.8772 0.4472 0.1745
vn -0.8944 0.4472 0.0000
vn -0.8772 0.4472 -0.1745
vn -0.8263 0.4472 -0.3423
vn -0.7437 0.4472 -0.4969
vn -0.6324 0.4472 -0.6324
vn -0.4969 0.4472 -0.7437
vn -0.3423 0.4472 -0.8263
vn -0.1745 0.4472 -0.8772
vn 0.0000 0.4472 -0.8944
usemtl None
s 1
f 63/1/1 3/2/2 2/3/1
f 62/4/2 4/5/3 3/2/2
f 61/6/3 5/7/4 4/5/3
f 60/8/4 6/9/5 5/7/4
f 59/10/5 7/11/6 6/9/5
f 58/12/6 8/13/7 7/11/6
f 57/14/7 9/15/8 8/13/7
f 56/16/8 10/17/9 9/15/8
f 55/18/9 11/19/10 10/17/9
f 54/20/10 12/21/11 11/19/10
f 53/22/11 13/23/12 12/21/11
f 13/23/12 51/24/13 14/25/13
f 51/24/13 15/26/14 14/25/13
f 50/27/14 16/28/15 15/26/14
f 49/29/15 17/30/16 16/28/15
f 17/30/16 47/31/17 18/32/17
f 18/32/17 46/33/18 19/34/18
f 46/33/18 20/35/19 19/34/18
f 45/36/19 21/37/20 20/35/19
f 44/38/20 22/39/21 21/37/20
f 43/40/21 23/41/22 22/39/21
f 42/42/22 24/43/23 23/41/22
f 41/44/23 25/45/24 24/43/23
f 40/46/24 26/47/25 25/45/24
f 39/48/25 27/49/26 26/47/25
f 38/50/26 28/51/27 27/49/26
f 37/52/27 29/53/28 28/51/27
f 36/54/28 30/55/29 29/53/28
f 35/56/29 31/57/30 30/55/29
f 34/58/30 32/59/31 31/57/30
f 64/60/32 2/3/1 1/61/32
f 33/62/31 1/61/32 32/59/31
f 63/1/1 62/4/2 3/2/2
f 62/4/2 61/6/3 4/5/3
f 61/6/3 60/8/4 5/7/4
f 60/8/4 59/10/5 6/9/5
f 59/10/5 58/12/6 7/11/6
f 58/12/6 57/14/7 8/13/7
f 57/14/7 56/16/8 9/15/8
f 56/16/8 55/18/9 10/17/9
f 55/18/9 54/20/10 11/19/10
f 54/20/10 53/22/11 12/21/11
f 53/22/11 52/63/12 13/23/12
f 13/23/12 52/63/12 51/24/13
f 51/24/13 50/27/14 15/26/14
f 50/27/14 49/29/15 16/28/15
f 49/29/15 48/64/16 17/30/16
f 17/30/16 48/64/16 47/31/17
f 18/32/17 47/31/17 46/33/18
f 46/33/18 45/36/19 20/35/19
f 45/36/19 44/38/20 21/37/20
f 44/38/20 43/40/21 22/39/21
f 43/40/21 42/42/22 23/41/22
f 42/42/22 41/44/23 24/43/23
f 41/44/23 40/46/24 25/45/24
f 40/46/24 39/48/25 26/47/25
f 39/48/25 38/50/26 27/49/26
f 38/50/26 37/52/27 28/51/27
f 37/52/27 36/54/28 29/53/28
f 36/54/28 35/56/29 30/55/29
f 35/56/29 34/58/30 31/57/30
f 34/58/30 33/62/31 32/59/31
f 64/60/32 63/1/1 2/3/1
f 33/62/31 64/60/32 1/61/32
